<svg width="17" height="17" viewBox="0 0 17 17" fill="none" xmlns="http://www.w3.org/2000/svg">
<path d="M12.5702 3.46973C10.5179 3.46973 8.85229 5.13535 8.85229 7.18763C8.85229 9.23991 10.5179 10.9055 12.5702 10.9055C14.6225 10.9055 16.2881 9.23991 16.2881 7.18763C16.2881 5.13535 14.6225 3.46973 12.5702 3.46973ZM14.4933 8.06042C14.7907 8.35785 14.7907 8.82351 14.4933 9.12094C14.3548 9.25943 14.1559 9.33937 13.9681 9.33937C13.7794 9.33937 13.5917 9.26036 13.443 9.12094L12.5702 8.23888L11.6881 9.11166C11.5496 9.26038 11.361 9.33009 11.163 9.33009C10.965 9.33009 10.7866 9.26038 10.6378 9.11166C10.3506 8.82446 10.3506 8.35785 10.6378 8.06042L11.5199 7.18763L10.6378 6.31485C10.3506 6.01741 10.3506 5.55175 10.6378 5.25432C10.9353 4.96712 11.4009 4.96712 11.6891 5.25432L12.5712 6.13639L13.4439 5.2636C13.7414 4.96617 14.207 4.96617 14.4952 5.2636C14.7926 5.5508 14.7926 6.01741 14.4952 6.31485L13.6224 7.18763L14.4952 8.06042H14.4933Z" fill="white"/>
<path d="M15.7035 1.95283C15.5055 2.24003 15.3763 2.44823 15.2471 2.65643C15.2369 2.67595 15.2173 2.7057 15.2071 2.72615C14.4338 2.26977 13.5313 1.98256 12.5702 1.98256C9.69533 1.98256 7.36513 4.32205 7.36513 7.18763C7.36513 8.83374 8.14869 10.2912 9.3477 11.2429V15.1198C9.3477 15.8039 8.79281 16.3588 8.10871 16.3588C7.42462 16.3588 6.86973 15.8039 6.86973 15.1198V11.1537C6.86973 10.9948 6.82047 10.846 6.73124 10.7271L0.513949 1.95282C0.24626 1.57639 0.216516 1.08004 0.424719 0.673863C0.643146 0.257457 1.05956 0 1.52522 0H14.6912C15.1569 0 15.5733 0.257457 15.7917 0.673863C15.9999 1.08004 15.9702 1.57639 15.7025 1.95282L15.7035 1.95283Z" fill="white"/>
</svg>
