<svg width="56" height="56" viewBox="0 0 56 56" fill="none" xmlns="http://www.w3.org/2000/svg">
<g clip-path="url(#clip0_44_4683)">
<path d="M27.9998 4.66666C15.1198 4.66666 4.6665 15.12 4.6665 28C4.6665 40.88 15.1198 51.3333 27.9998 51.3333C40.8798 51.3333 51.3332 40.88 51.3332 28C51.3332 15.12 40.8798 4.66666 27.9998 4.66666Z" fill="white"/>
<path d="M27.9998 4.66666C15.1198 4.66666 4.6665 15.12 4.6665 28C4.6665 40.88 15.1198 51.3333 27.9998 51.3333C40.8798 51.3333 51.3332 40.88 51.3332 28C51.3332 15.12 40.8798 4.66666 27.9998 4.66666ZM23.3332 39.6667L11.6665 28L14.9565 24.71L23.3332 33.0633L41.0432 15.3533L44.3332 18.6667L23.3332 39.6667Z" fill="#229B83"/>
</g>
<defs>
<clipPath id="clip0_44_4683">
<rect width="56" height="56" fill="white"/>
</clipPath>
</defs>
</svg>
