<svg width="16" height="16" viewBox="0 0 16 16" fill="none" xmlns="http://www.w3.org/2000/svg">
<path d="M14.1126 13.1514C15.2889 11.7588 16 9.96035 16 7.99885C16 6.03734 15.28 4.22109 14.0948 2.82562C14.0859 2.81673 14.08 2.80784 14.0711 2.79896C12.6015 1.08935 10.4267 0.00195312 8 0.00195312C5.57334 0.00195312 3.3985 1.08935 1.92889 2.79896C1.92 2.80785 1.91408 2.81673 1.90519 2.82562C0.717057 4.22117 0 6.02862 0 8.00188C0 9.97514 0.719996 11.7796 1.90519 13.1751C1.91408 13.184 1.92 13.1929 1.92889 13.2018C3.3985 14.9114 5.57334 15.9988 8 15.9988C10.4267 15.9988 12.6074 14.9084 14.077 13.1929C14.0918 13.181 14.1037 13.1662 14.1126 13.1514ZM0.601669 8.29523H3.85795C3.88165 9.63448 4.06832 10.8759 4.38238 11.9573C3.63277 12.1292 2.90981 12.3514 2.22537 12.6269C1.26538 11.4299 0.666844 9.93077 0.601669 8.29523ZM2.22239 3.3708C2.90684 3.64635 3.62979 3.86857 4.37941 4.04041C4.06534 5.12188 3.87868 6.36638 3.85497 7.7025H0.601725C0.66691 6.06696 1.26246 4.56777 2.22541 3.37065L2.22239 3.3708ZM15.3985 7.70265H12.1422C12.1185 6.3634 11.9318 5.12201 11.6177 4.04056C12.3674 3.86871 13.0903 3.6465 13.7748 3.37095C14.7347 4.56798 15.3333 6.06711 15.3985 7.70265ZM11.5526 7.70265H8.29635V4.43745C9.22374 4.42264 10.1393 4.33079 11.0253 4.16487C11.3364 5.21077 11.526 6.41982 11.5526 7.70265ZM8.29635 3.84487V0.621204C9.32151 0.807869 10.24 1.94564 10.8385 3.59608C10.0148 3.74422 9.16147 3.8271 8.29635 3.84487ZM7.70376 0.621204V3.84487C6.83859 3.83005 5.98822 3.74709 5.16162 3.59598C5.76012 1.94266 6.67864 0.807987 7.70376 0.621204ZM7.70376 4.43745V7.70265H4.44748C4.47415 6.41971 4.66377 5.21075 4.97487 4.16496C5.86079 4.33088 6.7763 4.41969 7.70376 4.43745ZM4.44748 8.29523H7.70376V11.5604C6.77637 11.5752 5.86081 11.6671 4.97484 11.833C4.66373 10.7871 4.47414 9.57806 4.44748 8.29523ZM7.70376 12.153V15.3767C6.6786 15.19 5.76008 14.0522 5.16162 12.4018C5.98532 12.2537 6.83865 12.1708 7.70376 12.153ZM8.29635 15.3767V12.153C9.16152 12.1678 10.0119 12.2508 10.8385 12.4019C10.24 14.0552 9.32148 15.1899 8.29635 15.3767ZM8.29635 11.5604V8.29523H11.5526C11.526 9.57818 11.3363 10.7871 11.0252 11.8329C10.1393 11.667 9.22382 11.5782 8.29635 11.5604ZM12.1452 8.29523H15.4015C15.3363 9.93077 14.7408 11.43 13.7778 12.6271C13.0934 12.3515 12.3704 12.1293 11.6208 11.9575C11.9349 10.876 12.1215 9.63135 12.1452 8.29523ZM13.363 2.89673C12.7497 3.13081 12.1067 3.32339 11.44 3.47153C11.0459 2.34858 10.5066 1.43607 9.86963 0.831539C11.2237 1.18413 12.4237 1.913 13.3599 2.89677L13.363 2.89673ZM6.13041 0.831501C5.49337 1.4389 4.95413 2.34852 4.56006 3.47149C3.89341 3.32335 3.25046 3.13075 2.63705 2.89669C3.57334 1.913 4.77628 1.18417 6.13041 0.831501ZM2.63709 13.101C3.25042 12.8669 3.89337 12.6743 4.5601 12.5262C4.95417 13.6491 5.49343 14.5616 6.13044 15.1662C4.77639 14.8136 3.57632 14.0847 2.63709 13.101ZM9.86967 15.1662C10.5067 14.5588 11.0459 13.6492 11.44 12.5262C12.1067 12.6743 12.7496 12.8669 13.363 13.101C12.4267 14.0847 11.2238 14.8136 9.87274 15.1662L9.86967 15.1662Z" fill="white"/>
</svg>
